PathFileType	4	(X/Y/Z)	./resultDataOpenSim/trcMotMarkerGrf/sub10/qtm-12-05.trc
DataRate	CameraRate	NumFrames	NumMarkers	Units	OrigDataRate	OrigDataStartFrame	OrigNumFrames
250.000000	250.000000	12	24	m	250.000000	191	507
Frame#	Time	L.Toe.Tip			R.Toe.Tip			L.Ankle.Lat			R.Ankle.Lat			L.Ankle.Med			R.Ankle.Med			L.Heel			R.Heel			L.Knee.Lat			R.Knee.Lat			L.Knee.Med			R.Knee.Med			L.Thigh.Upper			R.Thigh.Upper			L.ASIS			R.ASIS			V.Sacral			L.Acromium			R.Acromium			C7			L.Elbow			R.Elbow			L.Wrist.Lat			R.Wrist.Lat
		X1	Y1	Z1	X2	Y2	Z2	X3	Y3	Z3	X4	Y4	Z4	X5	Y5	Z5	X6	Y6	Z6	X7	Y7	Z7	X8	Y8	Z8	X9	Y9	Z9	X10	Y10	Z10	X11	Y11	Z11	X12	Y12	Z12	X13	Y13	Z13	X14	Y14	Z14	X15	Y15	Z15	X16	Y16	Z16	X17	Y17	Z17	X18	Y18	Z18	X19	Y19	Z19	X20	Y20	Z20	X21	Y21	Z21	X22	Y22	Z22	X23	Y23	Z23	X24	Y24	Z24

191	0.76	-0.034904345	0.02018487	-0.16542553	-0.73089636	0.037813172	-0.074343911	-0.16763732	0.043995842	-0.19802362	-0.8197921	0.14549363	-0.047389481	-0.16179421	0.067274635	-0.1132007	-0.77230216	0.14577261	-0.12168549	-0.23443246	0.011163973	-0.15792961	-0.86378531	0.15720039	-0.10450568	-0.15914045	0.43320238	-0.22361751	-0.52820229	0.4108937	0.0098515844	-0.15977277	0.41225345	-0.10242994	-0.48262459	0.39670596	-0.10620399	-0.28583524	0.79171539	-0.28603803	-0.44806879	0.80141382	0.070601075	-0.26990442	0.89711526	-0.19882497	-0.34749016	0.89155172	0.033589836	-0.49519425	0.90111792	-0.16542956	-0.38217092	1.3635433	-0.27269458	-0.42948404	1.355185	0.049880356	-0.4906568	1.3847783	-0.1282396	-0.4961212	1.0448329	-0.32601788	-0.37193879	0.99949697	0.10957526	-0.44457792	0.83741148	-0.44057388	-0.12045632	0.97840619	0.1045555
192	0.764	-0.034016882	0.019562599	-0.16559917	-0.72937957	0.037574578	-0.0742846	-0.16699485	0.044034029	-0.1979887	-0.81162391	0.1502523	-0.046297787	-0.16104559	0.06726746	-0.11308431	-0.76364685	0.1484312	-0.11973055	-0.23386885	0.011468175	-0.15734982	-0.85469337	0.16402086	-0.10372423	-0.15279649	0.43316688	-0.22355667	-0.51668876	0.41043939	0.011462754	-0.1535402	0.41276783	-0.10243893	-0.47032945	0.39498641	-0.10384946	-0.27973088	0.79206781	-0.28631353	-0.44011649	0.80101693	0.070811669	-0.26374652	0.89770646	-0.19919117	-0.3402347	0.89203743	0.032460565	-0.48843635	0.90145818	-0.1645461	-0.37623082	1.3635901	-0.2735841	-0.42298676	1.355747	0.048852357	-0.4842092	1.3848612	-0.12907951	-0.48959563	1.0446259	-0.327012	-0.36729747	0.99977356	0.10888092	-0.43742629	0.83755434	-0.44178819	-0.1161839	0.97804112	0.10631283
193	0.768	-0.033236019	0.0190256	-0.16574798	-0.72774855	0.037385474	-0.074207473	-0.16640691	0.044048164	-0.19798429	-0.80318552	0.15495002	-0.045090376	-0.16039957	0.067240661	-0.11299194	-0.7546139	0.15092313	-0.11770229	-0.23341897	0.01175898	-0.15699067	-0.84508173	0.17081961	-0.10282389	-0.14675284	0.43292871	-0.22356282	-0.50486602	0.40988553	0.013199257	-0.14733507	0.41312201	-0.10252449	-0.45745535	0.39300469	-0.10141302	-0.27374973	0.79236809	-0.28667186	-0.43218594	0.80059574	0.070947597	-0.25771167	0.89829757	-0.19962665	-0.33314759	0.89248529	0.031322562	-0.48190072	0.90187987	-0.1636688	-0.37028301	1.3636533	-0.27447358	-0.41651174	1.3562619	0.047810258	-0.47772613	1.3849187	-0.13005254	-0.48306848	1.0444193	-0.32800075	-0.36285717	1.0000908	0.10854156	-0.43020498	0.8377407	-0.44314022	-0.11205676	0.97762156	0.10826056
194	0.772	-0.032552588	0.018555194	-0.16590938	-0.72582325	0.037429531	-0.07408233	-0.16584707	0.044035819	-0.19799176	-0.79452726	0.15962317	-0.043774944	-0.15983152	0.067185071	-0.11291477	-0.74530482	0.15334597	-0.11562027	-0.23308901	0.012036835	-0.1568697	-0.83499349	0.17758019	-0.10172916	-0.14104846	0.4325299	-0.22361477	-0.4927858	0.40920885	0.015060972	-0.1411823	0.41330993	-0.10263566	-0.44413961	0.39075017	-0.098933916	-0.26789572	0.79260451	-0.28710474	-0.42429302	0.80013142	0.071011905	-0.25180535	0.89886063	-0.20012409	-0.32618358	0.89286785	0.030185944	-0.47576078	0.90237894	-0.16268476	-0.36431662	1.3637165	-0.27537267	-0.41003897	1.3567055	0.046787031	-0.47120066	1.384949	-0.13105228	-0.47655562	1.0442131	-0.32898363	-0.35867759	1.0004205	0.10858145	-0.42288975	0.8379574	-0.4446044	-0.10806276	0.97716525	0.11041599
195	0.776	-0.031964468	0.018141993	-0.16608669	-0.72341063	0.037953187	-0.073856282	-0.16531508	0.043994154	-0.19798879	-0.78564769	0.16431404	-0.042358294	-0.15929869	0.067083997	-0.11282022	-0.73585276	0.15584594	-0.11349605	-0.23284016	0.012285616	-0.15687253	-0.82444068	0.18428396	-0.10040353	-0.13569694	0.43202797	-0.22368356	-0.48050279	0.40840726	0.017043065	-0.13517029	0.4133241	-0.10274166	-0.43055587	0.38823104	-0.096447545	-0.26217638	0.79278429	-0.28760313	-0.4164808	0.79962682	0.071011017	-0.24602102	0.89937806	-0.20066861	-0.31915112	0.89317733	0.028935492	-0.47016469	0.90293526	-0.16143948	-0.35828887	1.3637655	-0.27626479	-0.40358332	1.3570628	0.045791263	-0.4646243	1.3849561	-0.13194475	-0.47008453	1.0440073	-0.32997359	-0.35467613	1.0007408	0.10885351	-0.41544972	0.83819837	-0.44614915	-0.10413417	0.97667103	0.11274843
196	0.78	-0.031477695	0.017790697	-0.16625027	-0.72041133	0.039122902	-0.073480862	-0.16483546	0.043931746	-0.19795196	-0.77648993	0.16903314	-0.040815132	-0.1587815	0.066933354	-0.1126767	-0.72641376	0.15859085	-0.11133566	-0.23264059	0.012500705	-0.15688601	-0.81360707	0.19092098	-0.098836235	-0.13069664	0.43147257	-0.22374452	-0.46807983	0.40750253	0.019139928	-0.12944924	0.41315851	-0.10285483	-0.4167921	0.38548575	-0.093961185	-0.25659275	0.79292706	-0.28815186	-0.40878986	0.79909114	0.070947081	-0.24035811	0.89985515	-0.20124248	-0.31181905	0.89342127	0.027413036	-0.46515941	0.90352253	-0.15984505	-0.35216241	1.3637885	-0.27711429	-0.39718269	1.3573426	0.04481453	-0.4580087	1.3849419	-0.13269262	-0.46366869	1.0438022	-0.33100787	-0.3507575	1.0010355	0.10922796	-0.40788232	0.83846342	-0.44773797	-0.10021837	0.97611998	0.11522564
197	0.784	-0.031085955	0.017503855	-0.16636694	-0.71681211	0.040928209	-0.072933913	-0.16442399	0.043869251	-0.19785958	-0.76699506	0.17373922	-0.03911621	-0.15829929	0.066750205	-0.11247977	-0.71705685	0.16167384	-0.10916957	-0.23247511	0.012691544	-0.15684721	-0.80264639	0.19753347	-0.097004119	-0.12602396	0.43089377	-0.2237816	-0.45558604	0.40653314	0.021370548	-0.12415574	0.41280997	-0.10299534	-0.40276803	0.38259665	-0.091412668	-0.25114066	0.79304663	-0.28873369	-0.40123436	0.79851283	0.070806948	-0.23482078	0.90030655	-0.20183542	-0.3042324	0.89360658	0.025668391	-0.46068884	0.90411238	-0.15791522	-0.34594524	1.3637729	-0.27789214	-0.39085506	1.3575622	0.043855151	-0.45138719	1.3849038	-0.13333976	-0.45723535	1.0435979	-0.33213301	-0.34687038	1.001296	0.10964445	-0.40023899	0.83874898	-0.44935123	-0.096302407	0.97548606	0.11784009
198	0.788	-0.030762014	0.017270364	-0.16642687	-0.71261134	0.043228645	-0.072225813	-0.16406792	0.043823169	-0.1976974	-0.75715178	0.17836767	-0.037281392	-0.15788085	0.066555131	-0.11224905	-0.70765889	0.16503315	-0.10707062	-0.23233151	0.012870128	-0.15672697	-0.79149744	0.20417782	-0.094879296	-0.12163001	0.43030395	-0.22378538	-0.44310305	0.40555719	0.023796996	-0.11932069	0.41228384	-0.10312564	-0.38835207	0.37967022	-0.088728561	-0.24581703	0.79314386	-0.2893407	-0.39381286	0.79786421	0.0705682	-0.22940741	0.90072727	-0.2024498	-0.29684041	0.89372507	0.024050396	-0.45664383	0.90467575	-0.15572666	-0.33966796	1.3637059	-0.2785931	-0.38458699	1.357722	0.04292611	-0.44479906	1.3848381	-0.1339257	-0.45053709	1.0433927	-0.33332435	-0.34299743	1.0015204	0.11008506	-0.39258347	0.83904313	-0.45100424	-0.092403542	0.97475512	0.12060728
199	0.792	-0.030473213	0.01707064	-0.16644357	-0.70778081	0.04588557	-0.071369418	-0.16373962	0.043792726	-0.19746649	-0.7469631	0.18288981	-0.035372413	-0.15751661	0.066349356	-0.11199675	-0.69800939	0.16853001	-0.10512812	-0.23219542	0.013042965	-0.15651527	-0.78005458	0.21082037	-0.092508794	-0.1174754	0.4297018	-0.22375286	-0.43068624	0.40462126	0.026446735	-0.11490427	0.41160184	-0.10317742	-0.37361057	0.37678613	-0.08597207	-0.24061858	0.79321371	-0.28997372	-0.38652381	0.7971344	0.070238712	-0.22410879	0.90108677	-0.2030975	-0.29005076	0.89374915	0.022864176	-0.45290533	0.9051835	-0.15337305	-0.33334066	1.3635803	-0.27923487	-0.37835509	1.3578097	0.042045154	-0.43825802	1.3847465	-0.13448467	-0.44320375	1.0431827	-0.33433153	-0.33913085	1.0017044	0.11055071	-0.38493685	0.83933187	-0.45272963	-0.088551734	0.97393484	0.12354528
200	0.796	-0.030203529	0.016890021	-0.16643418	-0.70223907	0.048867579	-0.070314856	-0.16342305	0.043767195	-0.19718576	-0.73638756	0.18736621	-0.033445116	-0.15715356	0.066118423	-0.11170871	-0.68796957	0.17208715	-0.1034068	-0.23205723	0.013210712	-0.15622405	-0.76835381	0.21730779	-0.090088319	-0.11357045	0.42907488	-0.2236898	-0.41828947	0.40370819	0.02919491	-0.11090626	0.4107967	-0.10313957	-0.35880388	0.37400827	-0.083325117	-0.23553652	0.79325747	-0.29062964	-0.37936452	0.79634609	0.069903008	-0.21891422	0.90135834	-0.20378995	-0.28378939	0.89365474	0.022047777	-0.44936068	0.90560617	-0.15094425	-0.32695819	1.3633959	-0.27984035	-0.37214688	1.3578212	0.041221429	-0.43171684	1.3846347	-0.13509978	-0.4352086	1.0429617	-0.33458986	-0.33526679	1.0018414	0.11104835	-0.37728119	0.83960734	-0.45454093	-0.084767873	0.97303887	0.12665365
201	0.8	-0.02995982	0.016726563	-0.16640556	-0.69581659	0.052254528	-0.068906972	-0.16312499	0.043739526	-0.19688526	-0.72542895	0.19190522	-0.031554698	-0.15675862	0.065855393	-0.11137209	-0.67748	0.17569383	-0.10192659	-0.23191999	0.013372145	-0.15589155	-0.75656301	0.22345427	-0.087870566	-0.10994572	0.4284094	-0.22359726	-0.40578629	0.40275684	0.031813813	-0.10734157	0.40990609	-0.10304328	-0.34411909	0.37144139	-0.080902017	-0.23056178	0.79328885	-0.29129739	-0.37236137	0.79553169	0.06970685	-0.21381443	0.90154924	-0.20452884	-0.27773497	0.89345764	0.021353371	-0.44590398	0.90591359	-0.14852318	-0.3205194	1.3631599	-0.28041988	-0.36597299	1.3577705	0.040453343	-0.42511285	1.3845007	-0.13585466	-0.42734125	1.0427114	-0.3336828	-0.331415	1.0019335	0.11158956	-0.36958422	0.83987233	-0.45641788	-0.081055319	0.97207271	0.12992029
202	0.804	-0.029757815	0.016586963	-0.16635798	-0.68832125	0.056114563	-0.066940806	-0.16286601	0.043706546	-0.19659691	-0.71422382	0.19657224	-0.0297739	-0.15636825	0.065573236	-0.11101254	-0.66659667	0.17935967	-0.10064943	-0.23179781	0.013525415	-0.15557126	-0.74489697	0.22915043	-0.085976444	-0.10657961	0.42770407	-0.22345151	-0.39307632	0.40172978	0.034145761	-0.10413667	0.4089814	-0.1028843	-0.32959073	0.36922952	-0.078702951	-0.22569421	0.79332631	-0.29196804	-0.36558246	0.79469307	0.069745552	-0.20879874	0.90169623	-0.20530692	-0.27171948	0.89320204	0.020650332	-0.44243314	0.90607489	-0.14618711	-0.31402099	1.3628856	-0.28096778	-0.35986307	1.3576826	0.039737925	-0.41848239	1.384335	-0.13670283	-0.42059589	1.0423792	-0.33222149	-0.32760021	1.0019982	0.11219296	-0.36180461	0.840138	-0.4583233	-0.077410337	0.97103802	0.13333652
